<svg xmlns="http://www.w3.org/2000/svg" version="1.1" xmlns:xlink="http://www.w3.org/1999/xlink" width="512" height="512" x="0" y="0" viewBox="0 0 300 300" style="enable-background:new 0 0 512 512" xml:space="preserve" class=""><rect width="300" height="300" fill="#e8e8e8" shape="square"></rect><g transform="matrix(0.7,0,0,0.7,45.00023803710938,45)"><path d="M126.953 82c7.719 0 14-6.281 14-14s-6.281-14-14-14-14 6.281-14 14 6.281 14 14 14zm0-20c3.309 0 6 2.691 6 6s-2.691 6-6 6-6-2.691-6-6 2.692-6 6-6zM216.953 110h4v4c0 2.211 1.791 4 4 4s4-1.789 4-4v-4h4c2.209 0 4-1.789 4-4s-1.791-4-4-4h-4v-4c0-2.211-1.791-4-4-4s-4 1.789-4 4v4h-4c-2.209 0-4 1.789-4 4s1.791 4 4 4zM246.158 187.402l-32.891-7.59-8.24-5.704c.418-1.569.529-3.217.28-4.871a11.917 11.917 0 0 0-4.742-7.867c-4.27-3.151-9.935-2.991-14.047-.075l-10.841-7.503c1.796-4.88.309-10.553-4.083-13.793-4.595-3.392-10.825-2.986-14.97.605l-8.513-5.894a3.994 3.994 0 0 0-4.783.172l-17.6 14.146a13.992 13.992 0 0 0-15.962 6.443c-2.582 4.434-5.877 7.016-10.072 7.898-9.039 1.898-22.625-3.688-40.387-16.605a3.992 3.992 0 0 0-3.115-.691 3.993 3.993 0 0 0-2.631 1.805c-.848 1.359-20.617 33.566-12.607 70.555V242c0 2.211 1.791 4 4 4l164.332-.016 39.494-3.289c6.826-.566 12.174-6.379 12.174-13.23V214c-.001-7.867-5.222-24.383-14.796-26.598zm6.41 22.952L208.953 214h-5.521c-.009-10.072 4.04-18.613 12.031-25.469l28.896 6.668c3.241.75 7.02 8.748 8.209 15.155zm-56.75-42.545a3.982 3.982 0 0 1 1.578 2.621 3.98 3.98 0 0 1-.734 2.973l-9.498 12.875a4.019 4.019 0 0 1-5.596.848 4.009 4.009 0 0 1-.844-5.594l9.498-12.879c1.307-1.778 3.815-2.149 5.596-.844zm-24.46-7.274 9.871 6.832-1.018 1.381-11.757-4.276zm-6.879-14.875c.824 0 1.654.25 2.365.777a4.007 4.007 0 0 1 .846 5.594l-17.076 23.152a3.984 3.984 0 0 1-2.623 1.582 3.96 3.96 0 0 1-2.969-.738h-.004a3.977 3.977 0 0 1-1.58-2.621 3.977 3.977 0 0 1 .736-2.969l17.08-23.152a3.998 3.998 0 0 1 3.225-1.625zm-18.467-2.672 5.605 3.881-6.677 9.052-10.341-3.76zm-87.717 12.871c18.156 12.59 32.281 17.613 43.045 15.34 6.445-1.355 11.605-5.293 15.34-11.703 1.486-2.551 4.541-3.672 7.275-2.695l16.035 5.831-2.254 3.055a11.92 11.92 0 0 0-2.209 8.914 11.924 11.924 0 0 0 4.744 7.863 11.901 11.901 0 0 0 8.914 2.211 11.933 11.933 0 0 0 7.865-4.742l6.454-8.751 11.758 4.276-.976 1.323c-3.928 5.32-2.791 12.848 2.531 16.781h.004a11.92 11.92 0 0 0 7.104 2.336c3.686 0 7.324-1.688 9.676-4.871l5.177-7.018 4.808 1.748c.152.059.309.102.469.141l2.146.495c-7.078 7.717-10.752 17.084-10.753 27.606H48.276c-4.55-25.79 5.493-49.272 10.019-58.14zm189.822 78.864L208.953 238h-160v-16l160.332-.015 43.668-3.639v11.119c0 2.723-2.123 5.031-4.836 5.258z" fill="#000000" opacity="1" data-original="#000000" class=""></path><path d="m67.295 195.707-1.941 5.977a5.523 5.523 0 0 0 2.012 6.188 5.523 5.523 0 0 0 6.506-.003l5.082-3.691 5.08 3.691c1.949 1.414 4.562 1.418 6.508.004s2.754-3.898 2.012-6.188l-1.941-5.977 5.088-3.695c1.943-1.418 2.748-3.906 2.004-6.191S94.844 182 92.441 182h-6.283l-1.941-5.973c-.742-2.289-2.857-3.828-5.264-3.828s-4.521 1.539-5.264 3.824L71.748 182h-6.283c-2.402 0-4.518 1.535-5.262 3.82s.061 4.773 2.008 6.191zM73.539 190a5.526 5.526 0 0 0 5.264-3.82l.15-.465.152.465a5.52 5.52 0 0 0 5.262 3.82h.488l-.398.289a5.525 5.525 0 0 0-2.008 6.184l.15.465-.396-.289a5.534 5.534 0 0 0-6.504.004l-.393.285.15-.465a5.522 5.522 0 0 0-2.01-6.184l-.395-.289zM162.953 112.529a4.53 4.53 0 1 0 0-9.06 4.53 4.53 0 0 0 0 9.06zM64.469 106.484c.781.781 1.805 1.172 2.828 1.172s2.047-.391 2.828-1.172l2.828-2.828 2.828 2.828c.781.781 1.805 1.172 2.828 1.172s2.047-.391 2.828-1.172a4 4 0 0 0 0-5.656L78.609 98l2.828-2.828a4 4 0 1 0-5.656-5.656l-2.828 2.828-2.828-2.828a4 4 0 1 0-5.656 5.656L67.297 98l-2.828 2.828a3.997 3.997 0 0 0 0 5.656z" fill="#000000" opacity="1" data-original="#000000" class=""></path></g></svg>